<svg xmlns="http://www.w3.org/2000/svg" viewBox="0 0 29.15 35.18"><defs><style>.cls-1{fill:#7065f0;}.cls-2{fill:#e6e6e6;}</style></defs><g id="Layer_2" data-name="Layer 2"><g id="Layer_1-2" data-name="Layer 1"><path class="cls-1" d="M29.15,14.57A14.58,14.58,0,1,0,9,28.05L12.49,34a2.41,2.41,0,0,0,4.16,0l3.45-5.94A14.57,14.57,0,0,0,29.15,14.57Z"/><path class="cls-2" d="M19.68,14.26a.81.81,0,0,0-.22-.61l-.11-.12a3,3,0,0,0-.47-.53L15.23,9a.88.88,0,0,0-1.31,0l-3.65,4a2.63,2.63,0,0,0-.47.53l-.11.12a.87.87,0,0,0-.23.61,2.69,2.69,0,0,0-.12.76v3.45A2.68,2.68,0,0,0,12,21.15h5.1a2.68,2.68,0,0,0,2.68-2.68V15A2.69,2.69,0,0,0,19.68,14.26Z"/></g></g></svg>